<?xml version="1.0" encoding="UTF-8" standalone="no"?><!-- Generator: Gravit.io --><svg xmlns="http://www.w3.org/2000/svg" xmlns:xlink="http://www.w3.org/1999/xlink" style="isolation:isolate" viewBox="0 0 325 284.504" width="325pt" height="284.504pt"><defs><clipPath id="_clipPath_1GoAlJjCgmVAIgCr9BCVz8m7fHshw5pw"><rect width="325" height="284.504"/></clipPath></defs><g clip-path="url(#_clipPath_1GoAlJjCgmVAIgCr9BCVz8m7fHshw5pw)"><clipPath id="_clipPath_4cVurJxT1J3udbY3V21xZBQD5HkUZ3j0"><path d=" M 42.647 0.275 L 257.822 31.692 C 270.16 33.493 281.199 45.147 282.546 57.722 L 304.619 263.797 C 305.947 276.205 297.221 285.442 285.062 284.428 L 73.089 266.779 C 59.508 265.648 47.203 254.009 45.681 240.776 L 20.405 20.93 C 18.862 7.508 28.856 -1.738 42.647 0.275 Z " fill-rule="evenodd" fill="rgb(255,255,255)"/></clipPath><g clip-path="url(#_clipPath_4cVurJxT1J3udbY3V21xZBQD5HkUZ3j0)"><mask id="_mask_wABNZS3dbyxKoYpmF3QNtjhzHWZvWeEY" x="-200%" y="-200%" width="400%" height="400%"><rect x="-200%" y="-200%" width="400%" height="400%" style="fill:white;"/><path d=" M 99.709 87.796 L 162.5 196.808 L 225.291 87.796 L 141.623 87.796 L 162.499 124.206 L 172.964 106.183 L 193.785 106.183 L 162.5 160.325 L 120.693 87.796 L 99.709 87.796 Z " fill-rule="evenodd" fill="black" stroke="none"/></mask><g mask="url(#_mask_wABNZS3dbyxKoYpmF3QNtjhzHWZvWeEY)"><g filter="url(#TAc0M1z7rhSpURD76WGy3jCKCUYOBlg2)"><path d=" M 42.647 0.275 L 257.822 31.692 C 270.16 33.493 281.199 45.147 282.546 57.722 L 304.619 263.797 C 305.947 276.205 297.221 285.442 285.062 284.428 L 73.089 266.779 C 59.508 265.648 47.203 254.009 45.681 240.776 L 20.405 20.93 C 18.862 7.508 28.856 -1.738 42.647 0.275 Z " fill-rule="evenodd" fill="rgb(241,242,242)"/></g><defs><filter id="TAc0M1z7rhSpURD76WGy3jCKCUYOBlg2" x="-200%" y="-200%" width="400%" height="400%" filterUnits="objectBoundingBox" color-interpolation-filters="sRGB"><feGaussianBlur xmlns="http://www.w3.org/2000/svg" in="SourceGraphic" stdDeviation="10"/><feOffset xmlns="http://www.w3.org/2000/svg" dx="0" dy="0" result="pf_100_offsetBlur"/><feFlood xmlns="http://www.w3.org/2000/svg" flood-color="#000000" flood-opacity="0"/><feComposite xmlns="http://www.w3.org/2000/svg" in2="pf_100_offsetBlur" operator="in" result="pf_100_dropShadow"/><feBlend xmlns="http://www.w3.org/2000/svg" in="SourceGraphic" in2="pf_100_dropShadow" mode="normal"/></filter></defs><g opacity="0.15"><path d=" M 34.266 30.05 L 34.266 30.05 L 57.518 232.291 C 58.761 243.097 68.975 252.826 80.201 253.761 L 275.2 269.996 C 280.011 270.397 283.967 268.776 286.6 265.995 C 289.24 263.208 290.73 259.059 290.197 254.082 L 269.892 64.509 C 268.784 54.168 259.573 44.486 249.51 43.017 L 51.566 14.116 C 45.928 13.293 41.339 14.794 38.336 17.579 C 35.347 20.352 33.646 24.657 34.266 30.05 Z  M 31.506 30.367 L 54.758 232.608 C 56.158 244.781 67.478 255.489 79.971 256.529 L 274.97 272.765 C 286.155 273.698 294.182 265.2 292.96 253.786 L 272.655 64.213 C 271.416 52.645 261.261 41.924 249.911 40.267 L 51.967 11.367 C 39.28 9.514 30.086 18.02 31.506 30.367 Z " fill-rule="evenodd" fill="rgb(241,242,242)"/></g></g></g></g></svg>