<?xml version="1.0" encoding="UTF-8" standalone="no"?><!-- Generator: Gravit.io --><svg xmlns="http://www.w3.org/2000/svg" xmlns:xlink="http://www.w3.org/1999/xlink" style="isolation:isolate" viewBox="0 0 141.625 107.635" width="141.625pt" height="107.635pt"><defs><clipPath id="_clipPath_Ruelsika12zzie24H9xrXkWVBnNCUdCi"><rect width="141.625" height="107.635"/></clipPath></defs><g clip-path="url(#_clipPath_Ruelsika12zzie24H9xrXkWVBnNCUdCi)"><path d=" M 76.211 0 C 51.095 0 41.768 19.408 48.948 35.848 C 48.053 36.446 46.614 38.315 46.915 41.604 C 47.51 47.578 50.2 49.005 51.693 49.302 C 52.288 54.979 55.885 61.596 57.978 62.493 C 58.004 66.273 57.886 70.053 57.624 73.823 C 53.044 85.85 23.768 83.06 20.003 104.627 C 19.839 105.567 20.813 107.635 22.751 107.635 L 118.965 107.635 C 121.843 107.635 121.786 105.511 121.622 104.536 C 117.792 83.06 88.581 85.839 84.001 73.823 C 83.743 70.052 83.625 66.273 83.647 62.493 C 85.74 61.596 89.068 54.681 89.666 49.302 C 91.161 49.302 93.549 47.501 94.447 41.513 C 94.744 38.227 93.518 36.148 92.323 35.848 C 97.101 29.872 96.24 5.399 78.602 5.399 L 76.211 0 Z  M 42.929 14.162 C 24.02 14.483 15.735 29.532 21.419 42.4 C 20.813 42.697 19.618 44.28 19.918 47.003 C 20.524 51.846 22.326 53.022 23.544 53.022 C 24.141 57.556 26.821 62.646 28.325 63.553 C 28.325 66.575 28.359 66.487 28.059 70.104 C 25.606 77.848 0 77.273 0 96.305 C 0 96.305 0 99.137 2.832 99.137 L 15.667 99.137 C 19.995 86.901 31.755 82.188 40.629 78.69 C 45.518 76.764 50.532 74.818 52.047 72.407 C 52.214 69.773 52.302 67.535 52.313 65.06 C 49.623 61.984 47.62 57.191 46.648 53.109 C 44.346 51.404 41.856 48.13 41.247 42.046 C 40.983 39.156 41.592 36.757 42.578 34.874 C 40.329 27.894 40.474 20.601 42.929 14.162 Z  M 107.635 14.162 C 104.924 14.162 101.726 14.383 98.696 14.871 C 100.962 21.521 101.052 29.464 99.05 35.14 C 99.933 37.089 100.344 39.457 100.112 42.046 L 100.021 42.221 L 100.021 42.4 C 99.183 47.966 97.135 51.35 94.713 53.197 C 93.793 57.027 91.923 61.862 89.312 64.972 C 89.323 67.405 89.411 69.595 89.578 72.407 C 91.093 74.818 96.118 76.766 100.996 78.69 C 109.861 82.174 121.622 86.901 125.958 99.137 L 138.792 99.137 C 141.625 99.137 141.625 96.393 141.625 96.393 C 141.636 74.486 117.382 79.675 113.742 69.663 C 113.43 66.32 113.388 66.632 113.388 63.289 C 114.903 62.383 117.693 57.282 117.991 53.022 C 119.209 53.022 121.013 51.77 121.622 46.912 C 121.919 44.49 121.024 42.697 120.115 42.4 C 123.769 37.542 123.168 18.411 109.493 18.411 L 107.635 14.162 Z " fill="rgb(255,255,255)"/></g></svg>