<?xml version="1.0" encoding="UTF-8" standalone="no"?><!-- Generator: Gravit.io --><svg xmlns="http://www.w3.org/2000/svg" xmlns:xlink="http://www.w3.org/1999/xlink" style="isolation:isolate" viewBox="0 0 325 284.504" width="325pt" height="284.504pt"><defs><clipPath id="_clipPath_IFrZM6ARSbPFvXtM7GgSZRfzvNOZf1aK"><rect width="325" height="284.504"/></clipPath></defs><g clip-path="url(#_clipPath_IFrZM6ARSbPFvXtM7GgSZRfzvNOZf1aK)"><path d=" M 280.128 54.657 C 277.915 52.157 274.818 50.73 271.521 50.597 C 246.155 49.955 214.007 22.808 192.789 12.144 C 179.658 5.617 171.018 1.247 164.491 0.13 C 163.169 -0.043 161.831 -0.043 160.509 0.13 C 153.982 1.291 145.353 5.617 132.255 12.188 C 110.993 22.808 78.878 49.955 53.479 50.597 C 50.193 50.73 47.074 52.146 44.872 54.657 C 42.632 57.202 41.469 60.518 41.631 63.905 C 47.118 174.796 86.877 243.416 156.67 283.252 C 158.484 284.292 160.464 284.857 162.5 284.857 C 164.536 284.857 166.516 284.303 168.33 283.252 C 238.123 243.416 277.882 174.796 283.369 63.905 C 283.531 60.518 282.368 57.202 280.128 54.657 Z  M 173.563 208.503 C 170.454 211.269 166.87 212.652 162.887 212.652 C 158.871 212.652 155.287 211.269 152.168 208.536 C 149.224 205.973 147.551 202.25 147.588 198.348 C 147.588 194.244 149.148 190.825 152.168 188.192 C 155.053 185.431 158.905 183.91 162.898 183.955 C 166.947 183.955 170.531 185.382 173.563 188.192 C 176.549 190.825 178.098 194.244 178.098 198.348 C 178.146 202.234 176.488 205.945 173.563 208.503 L 173.563 208.503 Z  M 202.214 113.432 C 200.444 117.414 198.232 121.12 195.643 124.494 C 193.115 127.718 190.293 130.699 187.214 133.4 C 184.365 135.797 181.612 138.307 178.961 140.922 C 176.612 143.192 174.553 145.745 172.832 148.522 C 171.278 151.008 170.468 153.887 170.498 156.819 C 170.498 159.452 170.83 161.875 171.494 163.988 L 171.704 164.762 C 171.837 164.983 171.925 165.238 171.925 165.503 C 171.919 166.264 171.304 166.88 170.542 166.886 L 150.918 166.886 C 150.364 166.879 149.87 166.538 149.667 166.023 L 148.971 164.33 C 148.451 161.625 148.191 158.877 148.196 156.122 C 148.196 152.029 149.015 148.168 150.707 144.805 C 152.345 141.475 154.424 138.367 156.836 135.513 C 159.214 132.703 161.847 129.937 164.657 127.349 C 167.334 124.804 169.89 122.249 172.268 119.782 C 174.514 117.403 176.461 114.903 177.965 112.259 C 179.437 109.803 180.178 106.994 180.178 104.007 C 180.348 99.265 178.082 94.766 174.171 92.081 C 172.2 90.682 169.987 89.658 167.644 89.061 C 165.011 88.354 162.295 88.005 159.568 88.021 C 150.353 88.021 141.371 92.214 132.941 100.555 C 132.543 100.957 131.933 101.059 131.425 100.81 C 130.91 100.607 130.569 100.113 130.563 99.56 L 130.563 77.092 C 130.561 76.602 130.829 76.151 131.259 75.919 C 142.056 69.613 153.429 66.405 165 66.405 C 170.365 66.405 175.51 67.102 180.3 68.485 C 185.101 69.868 189.371 71.992 193.01 74.757 C 196.639 77.523 199.537 80.974 201.65 85.123 C 203.73 89.227 204.803 94.117 204.803 99.56 C 204.803 104.704 203.94 109.372 202.214 113.432 Z " fill="rgb(255,255,255)"/></g></svg>