<?xml version="1.0" encoding="UTF-8" standalone="no"?><!-- Generator: Gravit.io --><svg xmlns="http://www.w3.org/2000/svg" xmlns:xlink="http://www.w3.org/1999/xlink" style="isolation:isolate" viewBox="0 0 227 76.938" width="227pt" height="76.938pt"><defs><clipPath id="_clipPath_NayyOayhYKGvwk6tQneacxnpB2ugfAQu"><rect width="227" height="76.938"/></clipPath></defs><g clip-path="url(#_clipPath_NayyOayhYKGvwk6tQneacxnpB2ugfAQu)"><g><g><path d=" M 37.256 12.356 L 37.256 12.356 L 33.711 6.27 L 18.5 6.27 L 29.795 25.676 L 37.256 12.356 L 37.256 12.356 Z " fill="rgb(255,255,255)"/><path d=" M 77.116 6.27 L 55.826 44.265 L 43.717 23.458 L 36.256 36.775 L 55.982 70.667 L 92.063 6.27 L 77.116 6.27 L 77.116 6.27 Z " fill="rgb(255,255,255)"/></g><g><path d=" M 100.145 33.431 L 96.968 42.66 L 94.475 42.66 L 91.32 33.427 L 93.483 33.427 L 95.712 40.26 L 97.941 33.427 L 100.145 33.431 Z " fill="rgb(255,255,255)"/><path d=" M 103.489 42.66 L 101.508 42.66 L 101.508 33.431 L 103.489 33.431 L 103.489 42.66 Z " fill="rgb(255,255,255)"/><path d=" M 112.517 40.119 C 112.533 40.581 112.422 41.04 112.198 41.445 C 111.987 41.797 111.692 42.092 111.339 42.303 C 110.958 42.527 110.543 42.685 110.11 42.771 C 109.643 42.869 109.167 42.917 108.69 42.916 C 107.913 42.935 107.146 42.729 106.483 42.322 C 105.867 41.943 105.338 41.436 104.934 40.836 L 106.673 39.81 C 106.777 39.984 106.902 40.145 107.044 40.289 C 107.189 40.444 107.351 40.581 107.527 40.698 C 107.705 40.819 107.897 40.916 108.1 40.988 C 108.301 41.061 108.513 41.099 108.727 41.099 C 108.902 41.099 109.099 41.099 109.307 41.07 C 109.51 41.049 109.71 41.004 109.902 40.936 C 110.072 40.877 110.228 40.785 110.362 40.665 C 110.487 40.545 110.554 40.377 110.544 40.204 C 110.549 40.049 110.496 39.898 110.396 39.78 C 110.276 39.656 110.135 39.554 109.98 39.479 C 109.781 39.383 109.573 39.307 109.359 39.253 C 109.121 39.193 108.865 39.13 108.594 39.071 C 108.222 38.989 107.851 38.892 107.46 38.774 C 107.077 38.659 106.71 38.493 106.372 38.279 C 106.042 38.068 105.763 37.786 105.554 37.455 C 105.325 37.061 105.212 36.61 105.231 36.154 C 105.207 35.285 105.599 34.457 106.286 33.925 C 106.61 33.674 106.976 33.484 107.368 33.364 C 107.769 33.237 108.187 33.172 108.609 33.171 C 109.34 33.161 110.059 33.355 110.686 33.732 C 111.293 34.106 111.82 34.597 112.235 35.177 L 110.585 36.292 C 110.498 36.13 110.392 35.979 110.269 35.842 C 110.134 35.69 109.982 35.553 109.816 35.433 C 109.647 35.31 109.464 35.208 109.27 35.129 C 109.069 35.05 108.854 35.009 108.638 35.01 C 108.469 35.01 108.3 35.032 108.137 35.077 C 107.975 35.119 107.821 35.186 107.68 35.274 C 107.547 35.359 107.432 35.468 107.342 35.597 C 107.253 35.723 107.207 35.874 107.208 36.028 C 107.202 36.166 107.255 36.301 107.353 36.399 C 107.464 36.512 107.597 36.602 107.743 36.663 C 107.926 36.748 108.116 36.816 108.311 36.867 C 108.527 36.931 108.757 36.994 109.002 37.053 C 109.374 37.15 109.79 37.261 110.202 37.391 C 110.604 37.512 110.985 37.689 111.336 37.919 C 111.679 38.141 111.969 38.435 112.187 38.781 C 112.423 39.186 112.537 39.65 112.517 40.119 Z " fill="rgb(255,255,255)"/><path d=" M 121.472 39.145 C 121.476 39.648 121.375 40.147 121.174 40.609 C 120.793 41.515 120.075 42.238 119.172 42.627 C 118.227 43.023 117.163 43.023 116.218 42.627 C 115.768 42.436 115.359 42.162 115.01 41.82 C 114.664 41.476 114.386 41.069 114.193 40.62 C 113.987 40.152 113.884 39.645 113.888 39.134 L 113.888 33.431 L 115.869 33.431 L 115.869 39.13 C 115.866 39.385 115.916 39.638 116.014 39.873 C 116.103 40.101 116.229 40.313 116.385 40.501 C 116.548 40.683 116.743 40.833 116.961 40.943 C 117.183 41.052 117.427 41.108 117.674 41.107 C 117.917 41.107 118.156 41.051 118.373 40.943 C 118.591 40.832 118.787 40.682 118.953 40.501 C 119.113 40.316 119.238 40.103 119.324 39.873 C 119.416 39.636 119.463 39.384 119.462 39.13 L 119.462 33.431 L 121.438 33.431 L 121.472 39.145 Z " fill="rgb(255,255,255)"/><path d=" M 128.238 41.111 L 124.782 41.111 L 124.295 42.66 L 122.159 42.66 L 125.325 33.427 L 127.74 33.427 L 130.876 42.66 L 128.754 42.66 L 128.238 41.111 Z  M 127.632 39.253 L 126.517 35.823 L 125.403 39.253 L 127.632 39.253 Z " fill="rgb(255,255,255)"/><path d=" M 138.132 40.802 L 138.132 42.66 L 132.235 42.66 L 132.235 33.431 L 134.186 33.431 L 134.186 40.802 L 138.132 40.802 Z " fill="rgb(255,255,255)"/><path d=" M 148.591 42.66 L 146.733 39.814 L 145.281 39.814 L 145.281 42.66 L 143.304 42.66 L 143.304 33.431 L 147.257 33.431 C 147.679 33.429 148.096 33.515 148.483 33.683 C 149.249 34.005 149.861 34.609 150.193 35.37 C 150.596 36.316 150.52 37.399 149.988 38.279 C 149.692 38.764 149.275 39.162 148.777 39.435 L 150.887 42.664 L 148.591 42.66 Z  M 147.045 37.967 C 147.226 37.968 147.404 37.931 147.569 37.86 C 147.727 37.791 147.869 37.693 147.989 37.57 C 148.11 37.446 148.207 37.301 148.275 37.142 C 148.414 36.808 148.414 36.433 148.275 36.098 C 148.206 35.94 148.109 35.795 147.989 35.671 C 147.869 35.548 147.727 35.45 147.569 35.381 C 147.404 35.31 147.226 35.273 147.045 35.274 L 145.266 35.274 L 145.266 37.967 L 147.045 37.967 Z " fill="rgb(255,255,255)"/><path d=" M 156.669 33.167 C 157.323 33.162 157.971 33.295 158.571 33.557 C 159.15 33.807 159.676 34.165 160.12 34.612 C 160.56 35.06 160.912 35.585 161.161 36.162 C 161.678 37.373 161.678 38.743 161.161 39.955 C 160.912 40.534 160.555 41.06 160.109 41.504 C 159.662 41.945 159.137 42.298 158.56 42.545 C 157.965 42.798 157.323 42.925 156.676 42.916 C 156.023 42.925 155.375 42.799 154.774 42.545 C 154.195 42.295 153.669 41.937 153.224 41.49 C 152.785 41.042 152.432 40.516 152.184 39.94 C 151.667 38.729 151.667 37.358 152.184 36.147 C 152.682 34.976 153.614 34.044 154.785 33.546 C 155.381 33.294 156.022 33.165 156.669 33.167 L 156.669 33.167 Z  M 156.669 41.096 C 157.054 41.095 157.435 41.009 157.783 40.843 C 158.131 40.679 158.445 40.451 158.708 40.171 C 159.248 39.596 159.55 38.838 159.552 38.049 C 159.553 37.655 159.477 37.266 159.329 36.901 C 159.185 36.541 158.975 36.212 158.708 35.931 C 158.442 35.656 158.129 35.431 157.783 35.266 C 157.077 34.935 156.26 34.935 155.554 35.266 C 155.207 35.429 154.894 35.655 154.629 35.931 C 154.362 36.212 154.15 36.541 154.005 36.901 C 153.708 37.637 153.708 38.461 154.005 39.197 C 154.15 39.558 154.362 39.888 154.629 40.171 C 154.891 40.453 155.205 40.681 155.554 40.843 C 155.902 41.009 156.283 41.095 156.669 41.096 L 156.669 41.096 Z " fill="rgb(255,255,255)"/><path d=" M 168.967 40.802 L 168.967 42.66 L 163.074 42.66 L 163.074 33.431 L 165.025 33.431 L 165.025 40.802 L 168.967 40.802 Z " fill="rgb(255,255,255)"/><path d=" M 176.171 40.802 L 176.171 42.66 L 170.327 42.66 L 170.327 33.431 L 176.09 33.431 L 176.09 35.288 L 172.277 35.288 L 172.277 37.146 L 175.142 37.146 L 175.142 39.004 L 172.277 39.004 L 172.277 40.862 L 176.171 40.802 Z " fill="rgb(255,255,255)"/><path d=" M 181.392 33.431 C 182.263 33.433 183.098 33.78 183.714 34.397 C 184.017 34.697 184.259 35.053 184.427 35.444 C 184.603 35.85 184.693 36.288 184.691 36.73 C 184.693 37.169 184.606 37.604 184.435 38.008 C 184.27 38.402 184.03 38.761 183.729 39.063 C 183.427 39.365 183.072 39.607 182.681 39.777 C 182.274 39.953 181.835 40.043 181.392 40.041 L 179.575 40.041 L 179.575 42.66 L 177.594 42.66 L 177.594 33.431 L 181.392 33.431 Z  M 181.169 38.194 C 181.364 38.195 181.558 38.154 181.737 38.075 C 181.908 37.998 182.064 37.891 182.198 37.759 C 182.329 37.626 182.433 37.47 182.506 37.298 C 182.586 37.114 182.628 36.916 182.629 36.715 C 182.628 36.525 182.589 36.336 182.514 36.162 C 182.441 35.99 182.337 35.833 182.205 35.701 C 182.072 35.568 181.916 35.46 181.745 35.381 C 181.566 35.302 181.372 35.262 181.176 35.262 L 179.582 35.262 L 179.582 38.201 L 181.169 38.194 Z " fill="rgb(255,255,255)"/><path d=" M 191.892 40.802 L 191.892 42.66 L 185.995 42.66 L 185.995 33.431 L 187.95 33.431 L 187.95 40.802 L 191.892 40.802 Z " fill="rgb(255,255,255)"/><path d=" M 198.884 41.111 L 195.429 41.111 L 194.927 42.66 L 192.791 42.66 L 195.953 33.427 L 198.368 33.427 L 201.522 42.66 L 199.397 42.66 L 198.884 41.111 Z  M 198.275 39.253 L 197.16 35.823 L 196.046 39.253 L 198.275 39.253 Z " fill="rgb(255,255,255)"/><path d=" M 208.5 33.431 L 205.479 39.29 L 205.479 42.66 L 203.499 42.66 L 203.499 39.286 L 200.463 33.431 L 202.522 33.431 L 204.472 37.403 L 206.427 33.431 L 208.5 33.431 Z " fill="rgb(255,255,255)"/></g></g></g></svg>